<svg xmlns="http://www.w3.org/2000/svg" width="41" height="35" viewBox="0 0 41 35">
  <path fill="#FFFFFF" d="M37.6297542,2.78527549 C39.5431195,4.64199469 40.5000792,7.21737539 40.5,10.5116536 C40.5,13.820958 38.7749553,17.1902099 35.3245492,20.6189372 L21.2444417,34.095866 C20.9733203,34.3650789 20.6416418,34.5 20.2499604,34.5 C19.858279,34.5 19.526838,34.3650789 19.2555583,34.0953153 L5.15304862,20.5736226 C5.00240801,20.4540423 4.79516834,20.2591737 4.53156707,19.9899609 C4.26820327,19.7201973 3.84976594,19.230233 3.27720498,18.5188879 C2.70464403,17.8076215 2.19224432,17.0773954 1.74040166,16.3289175 C1.28847984,15.5803609 0.885161984,14.6743046 0.531239677,13.6111419 C0.177317371,12.5483725 8.52651283e-14,11.5149475 8.52651283e-14,10.5116536 C8.52651283e-14,7.21737539 0.956801368,4.64199469 2.87024579,2.78527549 C4.7836902,0.928398938 7.42777718,3.55271368e-15 10.8029025,3.55271368e-15 C11.7369851,3.55271368e-15 12.6901451,0.161039965 13.6618285,0.482726539 C14.633591,0.804806469 15.5376721,1.2389142 16.3739135,1.7856791 C17.2103132,2.33236534 17.9295568,2.84514428 18.5324359,3.32417327 C19.1349191,3.8033596 19.7074801,4.31259834 20.2500396,4.85149612 C20.7923616,4.31259834 21.3650809,3.8033596 21.967485,3.32417327 C22.5706015,2.84514428 23.2895285,2.33205065 24.1260865,1.7856791 C24.9615363,1.23915021 25.8657757,0.804727798 26.8377757,0.482726539 C27.8093799,0.160961294 28.7626983,3.55271368e-15 29.6967808,3.55271368e-15 C33.0721437,3.55271368e-15 35.7160723,0.928162925 37.6297542,2.78527549 Z M29.5659483,12.2064234 C29.2271336,11.4662227 28.7956147,10.7662532 28.2777522,10.1207014 L31.4682409,6.94018681 L31.4682409,9.38055583 C31.4682409,9.9901809 31.9645568,10.233926 32.5760936,10.233926 C33.1876304,10.233926 33.6839463,9.9901809 33.6839463,9.38055583 L33.6839463,4.27412188 C33.6839463,4.25093398 33.6785369,4.22882466 33.6771845,4.20617605 C33.6755617,4.18083121 33.672857,4.15656481 33.6696113,4.13175919 C33.6574401,4.03658112 33.6363433,3.94490818 33.6014524,3.85889737 C33.6003705,3.85674036 33.6003705,3.85377445 33.5998295,3.85107822 C33.5998295,3.85053893 33.5992886,3.84999972 33.5987477,3.84946043 C33.5603407,3.75886599 33.5078691,3.67662998 33.4486358,3.60032572 C33.4340303,3.58226074 33.4196953,3.56446544 33.4042784,3.54747896 C33.340988,3.47629762 33.2722882,3.4105088 33.192499,3.35685322 C33.1903352,3.35523542 33.1876304,3.35469621 33.1854667,3.35307841 C33.1083822,3.30238867 33.0231835,3.26410177 32.9339279,3.23390362 C32.9117491,3.22608441 32.8901114,3.21934377 32.8673918,3.21341195 C32.7738085,3.18806711 32.6775206,3.16973252 32.5760936,3.16973252 L27.4536459,3.16973252 C26.8421091,3.16973252 26.3457932,3.66449682 26.3457932,4.27412188 C26.3457932,4.88374694 26.8421091,5.37851124 27.4536459,5.37851124 L29.901127,5.37851124 L26.7111793,8.55848659 C24.9479733,7.15265499 22.7771662,6.38448966 20.4884333,6.38448966 C16.4632252,6.38448966 12.9872553,8.77490808 11.4140767,12.2064234 L11.0041462,12.2064234 C10.4573843,12.2064234 10.0141462,12.6496615 10.0141462,13.1964234 L10.0141462,19.2490375 C10.0141462,19.7957994 10.4573843,20.2390375 11.0041462,20.2390375 L11.323965,20.2390375 C12.8514984,23.778661 16.3844996,26.2634981 20.4884333,26.2634981 C24.5923671,26.2634981 28.1253683,23.778661 29.6529017,20.2390375 L30.1758825,20.2390375 C30.7226444,20.2390375 31.1658825,19.7957994 31.1658825,19.2490375 L31.1658825,13.1964234 C31.1658825,12.6496615 30.7226444,12.2064234 30.1758825,12.2064234 L29.5659483,12.2064234 Z M13.5394356,20.2390375 L27.1994388,20.2390375 C25.8666295,22.6322689 23.3047641,24.2553445 20.3694372,24.2553445 C17.4341103,24.2553445 14.8722449,22.6322689 13.5394356,20.2390375 Z M13.8443974,12.2064234 C15.2411172,10.0910693 17.6443356,8.69215472 20.3694372,8.69215472 C22.4535232,8.69215472 24.4156405,9.50092818 25.8909719,10.9664908 C26.2736961,11.3493582 26.6117487,11.7647774 26.9025088,12.2064234 L13.8443974,12.2064234 Z M17.064725,13.2105001 L19.1679184,13.2105001 L20.6321669,17.9072644 L22.0742299,13.2105001 L24.1153037,13.2105001 L21.7015121,19.7369991 L19.5228877,19.7369991 L17.064725,13.2105001 Z"/>
</svg>
