<svg xmlns="http://www.w3.org/2000/svg" width="199" height="38" viewBox="0 0 199 38">
  <path fill="#FFFFFF" d="M41.2641345,3.06783967 C43.3622975,5.11292169 44.4116829,7.9495729 44.4115961,11.5780532 C44.4115961,15.2230842 42.519942,18.9341442 38.7362867,22.7107134 L23.2962856,37.5548669 C22.9989785,37.8513912 22.6352657,38 22.2057546,38 C21.7762436,38 21.4127912,37.8513912 21.1153105,37.5542603 L5.65074355,22.6608017 C5.48555368,22.5290901 5.25829826,22.3144522 4.96923768,22.0179279 C4.68043753,21.720797 4.22158642,21.1811262 3.59372603,20.3976157 C2.96586563,19.6141918 2.40397702,18.8098848 1.90849421,17.9854743 C1.4129246,17.1609773 0.970653247,16.1630022 0.582548197,14.9919824 C0.194443147,13.8213958 2.06057393e-13,12.6831306 2.06057393e-13,11.5780532 C2.06057393e-13,7.9495729 1.04921175,5.11292169 3.14746164,3.06783967 C5.24571153,1.02258434 8.14517136,-2.13162821e-14 11.8462751,-2.13162821e-14 C12.8705739,-2.13162821e-14 13.9157926,0.177377353 14.9813237,0.531698796 C16.0469416,0.886453502 17.0383412,1.36460115 17.955349,1.96683495 C18.8725304,2.56898211 19.6612404,3.1337821 20.3223471,3.66140824 C20.9830197,4.18920768 21.6108801,4.75010832 22.2058415,5.34367689 C22.8005423,4.75010832 23.4285763,4.18920768 24.0891622,3.66140824 C24.7505293,3.1337821 25.5388921,2.5686355 26.4562471,1.96683495 C27.3723868,1.36486111 28.3639601,0.88636685 29.4298384,0.531698796 C30.4952827,0.1772907 31.540675,-2.13162821e-14 32.5649737,-2.13162821e-14 C36.2663379,-2.13162821e-14 39.1656241,1.02232438 41.2641345,3.06783967 Z M32.421505,13.4447562 C32.0499667,12.6294627 31.5767706,11.8584818 31.0088916,11.1474392 L34.507526,7.64426373 L34.507526,10.3322064 C34.507526,11.0036775 35.0517774,11.2721504 35.7223781,11.2721504 C36.3929787,11.2721504 36.9372301,11.0036775 36.9372301,10.3322064 L36.9372301,4.70772845 C36.9372301,4.68218816 36.9312982,4.65783586 36.9298152,4.63288956 C36.9280356,4.60497351 36.9250697,4.5782453 36.9215106,4.55092317 C36.9081638,4.44608935 36.8850294,4.34511625 36.8467687,4.25037971 C36.8455823,4.24800387 36.8455823,4.24473707 36.8449891,4.24176732 C36.8449891,4.24117332 36.8443959,4.2405794 36.8438027,4.2399854 C36.8016863,4.14020022 36.7441469,4.04962143 36.6791926,3.96557616 C36.6631765,3.9456785 36.647457,3.92607787 36.6305512,3.90736813 C36.561148,3.82896549 36.4858129,3.75650245 36.3983175,3.69740354 C36.3959447,3.69562163 36.3929787,3.69502771 36.390606,3.69324579 C36.3060765,3.63741361 36.2126491,3.59524253 36.1147729,3.5619808 C36.0904521,3.55336833 36.0667245,3.54594386 36.0418106,3.53941027 C35.9391888,3.51149421 35.8336011,3.49129959 35.7223781,3.49129959 L30.105191,3.49129959 C29.4345903,3.49129959 28.8903389,4.03625736 28.8903389,4.70772845 C28.8903389,5.37919953 29.4345903,5.9241573 30.105191,5.9241573 L32.7890562,5.9241573 L29.2910149,9.42673886 C27.3575139,7.87828666 24.9770446,7.03219151 22.4672599,7.03219151 C18.0532867,7.03219151 14.2415985,9.66511615 12.5164781,13.4447562 L12.0813387,13.4447562 C11.4738254,13.4447562 10.9813387,13.937243 10.9813387,14.5447562 L10.9813387,21.1922732 C10.9813387,21.7997864 11.4738254,22.2922732 12.0813387,22.2922732 L12.4176632,22.2922732 C14.0927298,26.1909889 17.9669575,28.9279109 22.4672599,28.9279109 C26.9675623,28.9279109 30.84179,26.1909889 32.5168566,22.2922732 L33.075965,22.2922732 C33.6834783,22.2922732 34.175965,21.7997864 34.175965,21.1922732 L34.175965,14.5447562 C34.175965,13.937243 33.6834783,13.4447562 33.075965,13.4447562 L32.421505,13.4447562 Z M14.8471097,22.2922732 L29.8264319,22.2922732 C28.3648963,24.9282962 25.5555993,26.7160317 22.3367708,26.7160317 C19.1179424,26.7160317 16.3086453,24.9282962 14.8471097,22.2922732 Z M15.1815255,13.4447562 C16.7131442,11.114801 19.3484717,9.57396752 22.3367708,9.57396752 C24.6221433,9.57396752 26.7737671,10.4647905 28.3915898,12.0790334 C28.8112785,12.5007424 29.1819811,12.9583055 29.5008236,13.4447562 L15.1815255,13.4447562 Z M18.7128808,14.5506958 L21.0192061,14.5506958 L22.6248757,19.7239434 L24.2062169,14.5506958 L26.4444229,14.5506958 L23.797501,21.7393034 L21.4084594,21.7393034 L18.7128808,14.5506958 Z M53.7730653,27.1767862 C53.7859751,26.8031996 53.8279314,26.4135159 53.8989354,26.0077236 C53.9699393,25.6019313 54.0699889,25.2251297 54.1990871,24.8773077 L59.4856305,25.6309183 C59.4727206,26.0045049 59.4307644,26.3941885 59.3597604,26.7999809 C59.2887564,27.2057732 59.1887068,27.5825747 59.0596086,27.9303967 L53.7730653,27.1767862 Z M49.416024,19.5440637 C49.416024,18.7582436 49.5225284,18.0400663 49.7355404,17.3895104 C49.9485524,16.7389544 50.2648381,16.1818034 50.6844071,15.7180407 C51.1039762,15.2542781 51.6235885,14.8967997 52.2432597,14.6455949 C52.8629309,14.3943901 53.5794149,14.2687896 54.3927334,14.2687896 C55.2189616,14.2687896 55.9419005,14.3943901 56.5615717,14.6455949 C57.1812429,14.8967997 57.7008552,15.2542781 58.1204242,15.7180407 C58.5399932,16.1818034 58.856279,16.7389544 59.069291,17.3895104 C59.2823029,18.0400663 59.3888073,18.7582436 59.3888073,19.5440637 C59.3888073,20.3170015 59.2823029,21.0222966 59.069291,21.6599703 C58.856279,22.297644 58.5399932,22.8451333 58.1204242,23.3024549 C57.7008552,23.7597764 57.1812429,24.1108137 56.5615717,24.3555773 C55.9419005,24.600341 55.2189616,24.722721 54.3927334,24.722721 C53.5794149,24.722721 52.8629309,24.600341 52.2432597,24.3555773 C51.6235885,24.1108137 51.1039762,23.7597764 50.6844071,23.3024549 C50.2648381,22.8451333 49.9485524,22.297644 49.7355404,21.6599703 C49.5225284,21.0222966 49.416024,20.3170015 49.416024,19.5440637 Z M56.077456,19.5440637 C56.077456,18.7195967 55.9386775,18.0883736 55.6611165,17.6503756 C55.3835554,17.2123775 54.9607653,16.9933817 54.3927334,16.9933817 C53.8247014,16.9933817 53.4051387,17.2123775 53.1340326,17.6503756 C52.8629264,18.0883736 52.7273754,18.7195967 52.7273754,19.5440637 C52.7273754,20.3556483 52.8629264,20.9804304 53.1340326,21.4184284 C53.4051387,21.8564265 53.8247014,22.0754223 54.3927334,22.0754223 C54.9607653,22.0754223 55.3835554,21.8564265 55.6611165,21.4184284 C55.9386775,20.9804304 56.077456,20.3556483 56.077456,19.5440637 Z M69.7004716,24.0270804 C69.4810047,24.1043742 69.2195849,24.1816668 68.9162042,24.2589606 C68.6128235,24.3362544 68.2900829,24.4103265 67.9479728,24.4811791 C67.6058627,24.5520317 67.2540754,24.6067807 66.8926006,24.6454276 C66.5311257,24.6840745 66.1761111,24.7033976 65.827546,24.7033976 C65.1691454,24.7033976 64.5365739,24.6518692 63.9298125,24.5488108 C63.3230512,24.4457525 62.7905292,24.2364183 62.3322307,23.920802 C61.8739323,23.6051857 61.5092354,23.1478711 61.2381293,22.5488443 C60.9670231,21.9498175 60.8314721,21.1479066 60.8314721,20.1430875 L60.8314721,14.5006698 C61.115488,14.4362583 61.3962723,14.391171 61.6738334,14.3654064 C61.9513944,14.3396418 62.2192691,14.3267597 62.4774654,14.3267597 C62.722752,14.3267597 62.9873992,14.3396418 63.2714152,14.3654064 C63.5554311,14.391171 63.832988,14.4362583 64.1040942,14.5006698 L64.1040942,19.8725606 C64.1040942,20.6454984 64.2331904,21.1736646 64.4913867,21.4570751 C64.7495831,21.7404857 65.1433266,21.8821888 65.672629,21.8821888 C65.8920959,21.8821888 66.059921,21.8757477 66.1761093,21.8628654 C66.2922977,21.8499831 66.3762102,21.837101 66.4278495,21.8242187 L66.4278495,14.5006698 C66.7118655,14.4362583 66.9926498,14.391171 67.2702108,14.3654064 C67.5477719,14.3396418 67.8156465,14.3267597 68.0738429,14.3267597 C68.3191294,14.3267597 68.5837766,14.3396418 68.8677926,14.3654064 C69.1518086,14.391171 69.4293655,14.4362583 69.7004716,14.5006698 L69.7004716,24.0270804 Z M74.5125816,24.4715174 C74.1769264,24.5230466 73.8735502,24.5616929 73.6024441,24.5874575 C73.3313379,24.6132221 73.0860551,24.6261042 72.8665882,24.6261042 C72.6471214,24.6261042 72.4018385,24.6132221 72.1307324,24.5874575 C71.8596262,24.5616929 71.5627049,24.5230466 71.2399595,24.4715174 L71.2399595,14.5006698 C71.5239755,14.4362583 71.8047598,14.391171 72.0823208,14.3654064 C72.3598819,14.3396418 72.6277565,14.3267597 72.8859529,14.3267597 C73.1312394,14.3267597 73.3958866,14.3396418 73.6799026,14.3654064 C73.9639186,14.391171 74.2414755,14.4362583 74.5125816,14.5006698 L74.5125816,24.4715174 Z M78.8599405,20.5295544 C79.0019485,21.0577286 79.2504587,21.4313096 79.6054787,21.6503086 C79.9604986,21.8693076 80.4284725,21.9788055 81.0094142,21.9788055 C81.3837989,21.9788055 81.8033616,21.9337182 82.268115,21.8435421 C82.7328684,21.753366 83.19116,21.6181039 83.6430036,21.4377518 C83.823741,21.7726915 83.9818839,22.1720367 84.117437,22.6357994 C84.25299,23.099562 84.3272204,23.5826409 84.3401302,24.0850505 C83.1911565,24.5101663 82.0163809,24.722721 80.8157679,24.722721 C79.8862611,24.722721 79.0890919,24.5938999 78.4242364,24.336254 C77.7593809,24.0786081 77.2171767,23.7211297 76.7976077,23.2638082 C76.3780386,22.8064866 76.0682077,22.2622178 75.8681055,21.6309853 C75.6680034,20.9997527 75.5679538,20.3105602 75.5679538,19.563387 C75.5679538,18.8290961 75.6712308,18.1399036 75.8777878,17.4957888 C76.0843449,16.8516739 76.3941759,16.2913025 76.80729,15.8146575 C77.2204041,15.3380125 77.736789,14.961211 78.3564602,14.6842416 C78.9761314,14.4072722 79.6990703,14.2687896 80.5252985,14.2687896 C81.2095188,14.2687896 81.8194985,14.3847286 82.3552558,14.6166099 C82.8910132,14.8484912 83.3460774,15.1673233 83.7204621,15.5731156 C84.0948468,15.978908 84.3820859,16.4684279 84.582188,17.0416901 C84.7822902,17.6149523 84.8823398,18.2365138 84.8823398,18.9063932 C84.8823398,19.2542152 84.8662027,19.5666062 84.8339282,19.8435756 C84.8016536,20.1205449 84.772607,20.3492023 84.7467874,20.5295544 L78.8599405,20.5295544 Z M80.4091107,16.7228548 C79.9959966,16.7228548 79.640982,16.8516759 79.3440562,17.1093218 C79.0471304,17.3669677 78.8728505,17.7663129 78.8212113,18.3073694 L81.9195517,18.3073694 C81.8937321,17.856489 81.7549536,17.4796875 81.5032122,17.1769535 C81.2514708,16.8742196 80.886774,16.7228548 80.4091107,16.7228548 Z M86.3250045,14.5393165 C86.9317659,14.4620227 87.56111,14.3976122 88.2130557,14.346083 C88.8650015,14.2945538 89.4814359,14.2687896 90.0623777,14.2687896 C91.6244655,14.2687896 92.7960137,14.5618575 93.5770576,15.148002 C94.3581015,15.7341465 94.7486176,16.5553805 94.7486176,17.6117289 C94.7486176,18.01108 94.7034339,18.3588968 94.6130652,18.6551897 C94.5226965,18.9514825 94.4129647,19.205904 94.2838665,19.4184619 C94.1547684,19.6310198 94.0192173,19.8017077 93.8772094,19.9305306 C93.7352014,20.0593536 93.6190148,20.1624104 93.5286461,20.2397042 L95.7362136,24.4521941 C95.4780173,24.5037233 95.1907782,24.5423696 94.8744877,24.5681342 C94.5581972,24.5938988 94.2515936,24.6067809 93.9546679,24.6067809 C93.593193,24.6067809 93.2446332,24.5938988 92.908978,24.5681342 C92.5733227,24.5423696 92.2957658,24.5037233 92.076299,24.4521941 L89.9268253,19.8918839 L90.1979301,19.7372971 C90.6497736,19.4796512 90.9596046,19.2059065 91.1274322,18.9160549 C91.2952598,18.6262032 91.3791724,18.3138122 91.3791724,17.9788725 C91.3791724,17.6439328 91.2791228,17.3701881 91.0790206,17.1576302 C90.8789185,16.9450723 90.5594053,16.8387949 90.1204716,16.8387949 C89.8751851,16.8387949 89.6879955,16.851677 89.5588974,16.8774416 L89.5588974,24.4715174 C89.2232421,24.5359289 88.919866,24.5777957 88.6487599,24.5971192 C88.3776537,24.6164426 88.1388257,24.6261042 87.9322686,24.6261042 C87.7128017,24.6261042 87.4739737,24.6164426 87.2157774,24.5971192 C86.9575811,24.5777957 86.6606597,24.5359289 86.3250045,24.4715174 L86.3250045,14.5393165 Z M95.9395422,19.5440637 C95.9395422,18.7582436 96.0460466,18.0400663 96.2590586,17.3895104 C96.4720705,16.7389544 96.7883563,16.1818034 97.2079253,15.7180407 C97.6274944,15.2542781 98.1471067,14.8967997 98.7667779,14.6455949 C99.386449,14.3943901 100.102933,14.2687896 100.916252,14.2687896 C101.74248,14.2687896 102.465419,14.3943901 103.08509,14.6455949 C103.704761,14.8967997 104.224373,15.2542781 104.643942,15.7180407 C105.063511,16.1818034 105.379797,16.7389544 105.592809,17.3895104 C105.805821,18.0400663 105.912326,18.7582436 105.912326,19.5440637 C105.912326,20.3170015 105.805821,21.0222966 105.592809,21.6599703 C105.379797,22.297644 105.063511,22.8451333 104.643942,23.3024549 C104.224373,23.7597764 103.704761,24.1108137 103.08509,24.3555773 C102.465419,24.600341 101.74248,24.722721 100.916252,24.722721 C100.102933,24.722721 99.386449,24.600341 98.7667779,24.3555773 C98.1471067,24.1108137 97.6274944,23.7597764 97.2079253,23.3024549 C96.7883563,22.8451333 96.4720705,22.297644 96.2590586,21.6599703 C96.0460466,21.0222966 95.9395422,20.3170015 95.9395422,19.5440637 Z M102.600974,19.5440637 C102.600974,18.7195967 102.462196,18.0883736 102.184635,17.6503756 C101.907074,17.2123775 101.484283,16.9933817 100.916252,16.9933817 C100.34822,16.9933817 99.9286569,17.2123775 99.6575507,17.6503756 C99.3864446,18.0883736 99.2508935,18.7195967 99.2508935,19.5440637 C99.2508935,20.3556483 99.3864446,20.9804304 99.6575507,21.4184284 C99.9286569,21.8564265 100.34822,22.0754223 100.916252,22.0754223 C101.484283,22.0754223 101.907074,21.8564265 102.184635,21.4184284 C102.462196,20.9804304 102.600974,20.3556483 102.600974,19.5440637 Z M116.22399,24.0270804 C116.004523,24.1043742 115.743103,24.1816668 115.439722,24.2589606 C115.136342,24.3362544 114.813601,24.4103265 114.471491,24.4811791 C114.129381,24.5520317 113.777594,24.6067807 113.416119,24.6454276 C113.054644,24.6840745 112.699629,24.7033976 112.351064,24.7033976 C111.692664,24.7033976 111.060092,24.6518692 110.453331,24.5488108 C109.846569,24.4457525 109.314047,24.2364183 108.855749,23.920802 C108.39745,23.6051857 108.032754,23.1478711 107.761647,22.5488443 C107.490541,21.9498175 107.35499,21.1479066 107.35499,20.1430875 L107.35499,14.5006698 C107.639006,14.4362583 107.919791,14.391171 108.197352,14.3654064 C108.474913,14.3396418 108.742787,14.3267597 109.000984,14.3267597 C109.24627,14.3267597 109.510917,14.3396418 109.794933,14.3654064 C110.078949,14.391171 110.356506,14.4362583 110.627612,14.5006698 L110.627612,19.8725606 C110.627612,20.6454984 110.756709,21.1736646 111.014905,21.4570751 C111.273101,21.7404857 111.666845,21.8821888 112.196147,21.8821888 C112.415614,21.8821888 112.583439,21.8757477 112.699628,21.8628654 C112.815816,21.8499831 112.899728,21.837101 112.951368,21.8242187 L112.951368,14.5006698 C113.235384,14.4362583 113.516168,14.391171 113.793729,14.3654064 C114.07129,14.3396418 114.339165,14.3267597 114.597361,14.3267597 C114.842648,14.3267597 115.107295,14.3396418 115.391311,14.3654064 C115.675327,14.391171 115.952884,14.4362583 116.22399,14.5006698 L116.22399,24.0270804 Z M122.314165,14.3074363 C122.882197,14.3074363 123.450221,14.3557442 124.018252,14.4523614 C124.586284,14.5489787 125.099442,14.7518718 125.55774,15.0610469 C126.016039,15.370222 126.390418,15.8146546 126.680889,16.3943579 C126.97136,16.9740613 127.116593,17.7405464 127.116593,18.6938364 L127.116593,24.4715174 C126.780938,24.5359289 126.477562,24.5777957 126.206455,24.5971192 C125.935349,24.6164426 125.696521,24.6261042 125.489964,24.6261042 C125.270497,24.6261042 125.025214,24.6164426 124.754108,24.5971192 C124.483002,24.5777957 124.179626,24.5359289 123.843971,24.4715174 L123.843971,19.0416566 C123.843971,18.3588949 123.714875,17.869375 123.456678,17.5730822 C123.198482,17.2767893 122.804738,17.1286452 122.275436,17.1286452 C122.133428,17.1286452 121.98174,17.1415273 121.820367,17.1672919 C121.658994,17.1930564 121.558945,17.2188207 121.520215,17.2445852 L121.520215,24.4715174 C121.18456,24.5359289 120.881184,24.5777957 120.610078,24.5971192 C120.338972,24.6164426 120.100144,24.6261042 119.893587,24.6261042 C119.67412,24.6261042 119.428837,24.6164426 119.157731,24.5971192 C118.886625,24.5777957 118.583249,24.5359289 118.247593,24.4715174 L118.247593,14.9837535 C118.699437,14.829166 119.248096,14.6778012 119.893587,14.5296548 C120.539078,14.3815084 121.345929,14.3074363 122.314165,14.3074363 Z M134.659115,14.5006698 C134.762394,14.4749052 134.975403,14.449141 135.298148,14.4233764 C135.620894,14.3976118 135.950089,14.3847297 136.285744,14.3847297 C136.711768,14.3847297 137.108739,14.3976118 137.476669,14.4233764 C137.844599,14.449141 138.099564,14.4749052 138.241572,14.5006698 L134.446104,24.4521941 C134.174998,24.5166056 133.900669,24.5584724 133.623108,24.5777958 C133.345547,24.5971193 133.077672,24.6067809 132.819476,24.6067809 C132.561279,24.6067809 132.296632,24.5971193 132.025526,24.5777958 C131.75442,24.5584724 131.509137,24.5166056 131.28967,24.4521941 L127.571662,14.5006698 C127.71367,14.4749052 127.968635,14.449141 128.336564,14.4233764 C128.704494,14.3976118 129.101465,14.3847297 129.527489,14.3847297 C129.863144,14.3847297 130.198794,14.3976118 130.53445,14.4233764 C130.870105,14.449141 131.089569,14.4749052 131.192847,14.5006698 L132.955028,20.4909077 C133.251954,19.4989709 133.539193,18.4941668 133.816754,17.4764654 C134.094315,16.458764 134.375099,15.4668421 134.659115,14.5006698 Z M138.502994,19.5440637 C138.502994,18.7582436 138.609498,18.0400663 138.82251,17.3895104 C139.035522,16.7389544 139.351808,16.1818034 139.771377,15.7180407 C140.190946,15.2542781 140.710558,14.8967997 141.33023,14.6455949 C141.949901,14.3943901 142.666385,14.2687896 143.479703,14.2687896 C144.305932,14.2687896 145.02887,14.3943901 145.648542,14.6455949 C146.268213,14.8967997 146.787825,15.2542781 147.207394,15.7180407 C147.626963,16.1818034 147.943249,16.7389544 148.156261,17.3895104 C148.369273,18.0400663 148.475777,18.7582436 148.475777,19.5440637 C148.475777,20.3170015 148.369273,21.0222966 148.156261,21.6599703 C147.943249,22.297644 147.626963,22.8451333 147.207394,23.3024549 C146.787825,23.7597764 146.268213,24.1108137 145.648542,24.3555773 C145.02887,24.600341 144.305932,24.722721 143.479703,24.722721 C142.666385,24.722721 141.949901,24.600341 141.33023,24.3555773 C140.710558,24.1108137 140.190946,23.7597764 139.771377,23.3024549 C139.351808,22.8451333 139.035522,22.297644 138.82251,21.6599703 C138.609498,21.0222966 138.502994,20.3170015 138.502994,19.5440637 Z M145.164426,19.5440637 C145.164426,18.7195967 145.025648,18.0883736 144.748086,17.6503756 C144.470525,17.2123775 144.047735,16.9933817 143.479703,16.9933817 C142.911671,16.9933817 142.492109,17.2123775 142.221003,17.6503756 C141.949896,18.0883736 141.814345,18.7195967 141.814345,19.5440637 C141.814345,20.3556483 141.949896,20.9804304 142.221003,21.4184284 C142.492109,21.8564265 142.911671,22.0754223 143.479703,22.0754223 C144.047735,22.0754223 144.470525,21.8564265 144.748086,21.4184284 C145.025648,20.9804304 145.164426,20.3556483 145.164426,19.5440637 Z M153.287887,21.7662487 L156.947802,21.7662487 C157.012351,22.0238946 157.054307,22.2622135 157.073672,22.4812126 C157.093037,22.7002116 157.102719,22.9127663 157.102719,23.1188831 C157.102719,23.3249998 157.093037,23.540775 157.073672,23.7662152 C157.054307,23.9916554 157.012351,24.2331948 156.947802,24.4908408 L150.015265,24.4908408 L150.03463,14.5006698 C150.318646,14.4362583 150.59943,14.391171 150.876991,14.3654064 C151.154552,14.3396418 151.422427,14.3267597 151.680623,14.3267597 C151.92591,14.3267597 152.190557,14.3396418 152.474573,14.3654064 C152.758589,14.391171 153.036146,14.4362583 153.307252,14.5006698 L153.287887,21.7662487 Z M163.076707,14.5006698 C163.179985,14.4749052 163.392994,14.449141 163.715739,14.4233764 C164.038485,14.3976118 164.36768,14.3847297 164.703335,14.3847297 C165.129359,14.3847297 165.52633,14.3976118 165.89426,14.4233764 C166.26219,14.449141 166.517155,14.4749052 166.659163,14.5006698 L162.863696,24.4521941 C162.59259,24.5166056 162.31826,24.5584724 162.040699,24.5777958 C161.763138,24.5971193 161.495263,24.6067809 161.237067,24.6067809 C160.978871,24.6067809 160.714223,24.5971193 160.443117,24.5777958 C160.172011,24.5584724 159.926728,24.5166056 159.707261,24.4521941 L155.989253,14.5006698 C156.131261,14.4749052 156.386226,14.449141 156.754156,14.4233764 C157.122085,14.3976118 157.519056,14.3847297 157.94508,14.3847297 C158.280736,14.3847297 158.616386,14.3976118 158.952041,14.4233764 C159.287696,14.449141 159.50716,14.4749052 159.610438,14.5006698 L161.372619,20.4909077 C161.669545,19.4989709 161.956784,18.4941668 162.234345,17.4764654 C162.511906,16.458764 162.792691,15.4668421 163.076707,14.5006698 Z M166.726939,19.5440637 C166.726939,18.7582436 166.833443,18.0400663 167.046455,17.3895104 C167.259467,16.7389544 167.575753,16.1818034 167.995322,15.7180407 C168.414891,15.2542781 168.934503,14.8967997 169.554175,14.6455949 C170.173846,14.3943901 170.89033,14.2687896 171.703648,14.2687896 C172.529877,14.2687896 173.252815,14.3943901 173.872487,14.6455949 C174.492158,14.8967997 175.01177,15.2542781 175.431339,15.7180407 C175.850908,16.1818034 176.167194,16.7389544 176.380206,17.3895104 C176.593218,18.0400663 176.699722,18.7582436 176.699722,19.5440637 C176.699722,20.3170015 176.593218,21.0222966 176.380206,21.6599703 C176.167194,22.297644 175.850908,22.8451333 175.431339,23.3024549 C175.01177,23.7597764 174.492158,24.1108137 173.872487,24.3555773 C173.252815,24.600341 172.529877,24.722721 171.703648,24.722721 C170.89033,24.722721 170.173846,24.600341 169.554175,24.3555773 C168.934503,24.1108137 168.414891,23.7597764 167.995322,23.3024549 C167.575753,22.8451333 167.259467,22.297644 167.046455,21.6599703 C166.833443,21.0222966 166.726939,20.3170015 166.726939,19.5440637 Z M173.388371,19.5440637 C173.388371,18.7195967 173.249592,18.0883736 172.972031,17.6503756 C172.69447,17.2123775 172.27168,16.9933817 171.703648,16.9933817 C171.135616,16.9933817 170.716054,17.2123775 170.444947,17.6503756 C170.173841,18.0883736 170.03829,18.7195967 170.03829,19.5440637 C170.03829,20.3556483 170.173841,20.9804304 170.444947,21.4184284 C170.716054,21.8564265 171.135616,22.0754223 171.703648,22.0754223 C172.27168,22.0754223 172.69447,21.8564265 172.972031,21.4184284 C173.249592,20.9804304 173.388371,20.3556483 173.388371,19.5440637 Z M176.699722,15.1353395 C176.699722,14.8335396 176.791895,14.5820434 176.976242,14.3808435 C177.16059,14.1796436 177.412292,14.0790451 177.731355,14.0790451 C178.050418,14.0790451 178.30212,14.1796436 178.486468,14.3808435 C178.670815,14.5820434 178.762988,14.8335396 178.762988,15.1353395 C178.762988,15.4371394 178.670815,15.6886356 178.486468,15.8898355 C178.30212,16.0910355 178.050418,16.1916339 177.731355,16.1916339 C177.412292,16.1916339 177.16059,16.0910355 176.976242,15.8898355 C176.791895,15.6886356 176.699722,15.4371394 176.699722,15.1353395 Z M182.644075,11.9182197 C182.466818,11.9182197 182.298426,11.9469621 182.138894,12.0044478 C181.979362,12.0619335 181.841104,12.1463644 181.724114,12.2577429 C181.607124,12.3691215 181.513179,12.5074444 181.442276,12.6727157 C181.371373,12.8379871 181.335922,13.0319984 181.335922,13.2547555 C181.335922,13.7002697 181.461773,14.0344003 181.713478,14.2571574 C181.965184,14.4799145 182.271835,14.5912913 182.63344,14.5912913 C182.846148,14.5912913 183.030493,14.5661417 183.18648,14.5158417 C183.342466,14.4655417 183.480725,14.4116497 183.60126,14.354164 C183.743066,14.454764 183.849419,14.5643445 183.920322,14.6829087 C183.991225,14.801473 184.026676,14.9433886 184.026676,15.10866 C184.026676,15.4032742 183.888417,15.6314172 183.611895,15.7930957 C183.335374,15.9547742 182.952504,16.0356123 182.463273,16.0356123 C182.016585,16.0356123 181.612444,15.9691454 181.250839,15.8362098 C180.889234,15.7032741 180.579038,15.5164484 180.320242,15.275727 C180.061446,15.0350056 179.861149,14.7457851 179.719343,14.4080566 C179.577537,14.0703281 179.506635,13.6966767 179.506635,13.2870911 C179.506635,12.8128341 179.582854,12.3978654 179.735296,12.0421726 C179.887737,11.6864799 180.095125,11.3936665 180.357466,11.1637237 C180.619807,10.9337809 180.922913,10.7613264 181.266792,10.646355 C181.610671,10.5313836 181.974043,10.4738988 182.356919,10.4738988 C182.867421,10.4738988 183.260926,10.5673116 183.537448,10.7541402 C183.813969,10.9409687 183.952228,11.1816864 183.952228,11.4763006 C183.952228,11.6128292 183.920322,11.7403736 183.856509,11.8589379 C183.792697,11.9775021 183.71825,12.079897 183.633166,12.1661256 C183.512631,12.1086399 183.367282,12.0529514 183.197115,11.9990586 C183.026948,11.9451657 182.842603,11.9182197 182.644075,11.9182197 Z M190.132022,13.2547555 C190.132022,13.7002697 190.064665,14.0972743 189.92995,14.4457814 C189.795234,14.7942884 189.605572,15.0871018 189.360956,15.3242303 C189.116341,15.5613588 188.823871,15.7409989 188.483537,15.863156 C188.143202,15.9853132 187.763877,16.0463908 187.34555,16.0463908 C186.927222,16.0463908 186.547897,15.9817204 186.207563,15.8523775 C185.867229,15.7230347 185.574759,15.5380054 185.330144,15.297284 C185.085528,15.0565627 184.895866,14.7637493 184.76115,14.4188351 C184.626435,14.0739209 184.559078,13.6858983 184.559078,13.2547555 C184.559078,12.8307985 184.626435,12.4463687 184.76115,12.1014545 C184.895866,11.7565403 185.085528,11.4637269 185.330144,11.2230055 C185.574759,10.9822842 185.867229,10.7972549 186.207563,10.667912 C186.547897,10.5385692 186.927222,10.4738988 187.34555,10.4738988 C187.763877,10.4738988 188.143202,10.5403656 188.483537,10.6733013 C188.823871,10.806237 189.116341,10.9930627 189.360956,11.2337841 C189.605572,11.4745054 189.795234,11.7673188 189.92995,12.112233 C190.064665,12.4571472 190.132022,12.8379842 190.132022,13.2547555 Z M186.430353,13.3391694 C186.430353,13.7774979 186.513663,14.1134249 186.680285,14.3469605 C186.846906,14.5804962 187.07911,14.6972623 187.376903,14.6972623 C187.674695,14.6972623 187.903354,14.5786998 188.062885,14.3415713 C188.222417,14.1044428 188.302181,13.7703122 188.302181,13.3391694 C188.302181,12.9080267 188.220644,12.5756925 188.057568,12.3421568 C187.894491,12.1086212 187.66406,11.9918551 187.366267,11.9918551 C187.068475,11.9918551 186.838044,12.1086212 186.674967,12.3421568 C186.51189,12.5756925 186.430353,12.9080267 186.430353,13.3391694 Z M193.586587,10.4738988 C193.877289,10.4738988 194.162669,10.515216 194.442735,10.5978517 C194.722802,10.6804874 194.965641,10.8044391 195.17126,10.9697104 C195.383968,10.8259962 195.623262,10.7074337 195.889148,10.6140195 C196.155035,10.5206052 196.475866,10.4738988 196.851651,10.4738988 C197.121082,10.4738988 197.385192,10.5098268 197.643988,10.5816839 C197.902784,10.653541 198.133215,10.7667143 198.335288,10.9212071 C198.537362,11.0756999 198.698663,11.2804897 198.819198,11.5355825 C198.939733,11.7906752 199,12.1014526 199,12.467924 L199,15.863156 C198.929097,15.8847132 198.817427,15.90627 198.664985,15.9278271 C198.512544,15.9493843 198.354787,15.9601627 198.19171,15.9601627 C198.035724,15.9601627 197.895693,15.9493843 197.771612,15.9278271 C197.647532,15.90627 197.542952,15.8631564 197.457868,15.798485 C197.372785,15.7338135 197.307201,15.6457899 197.261114,15.5344114 C197.215027,15.4230328 197.191984,15.2775243 197.191984,15.0978815 L197.191984,12.5218165 C197.191984,12.3062452 197.131717,12.1499583 197.011182,12.0529512 C196.890647,11.955944 196.727573,11.9074412 196.521954,11.9074412 C196.42269,11.9074412 196.316337,11.9307944 196.202892,11.9775016 C196.089448,12.0242087 196.004365,12.0727115 195.947643,12.1230115 C195.954733,12.1517544 195.958278,12.1787004 195.958278,12.2038504 L195.958278,15.863156 C195.880285,15.8847132 195.76507,15.90627 195.612628,15.9278271 C195.460187,15.9493843 195.305975,15.9601627 195.149989,15.9601627 C194.994002,15.9601627 194.853971,15.9493843 194.729891,15.9278271 C194.605811,15.90627 194.50123,15.8631564 194.416147,15.798485 C194.331063,15.7338135 194.265479,15.6457899 194.219392,15.5344114 C194.173305,15.4230328 194.150262,15.2775243 194.150262,15.0978815 L194.150262,12.5218165 C194.150262,12.3062452 194.084678,12.1499583 193.953507,12.0529512 C193.822337,11.955944 193.66458,11.9074412 193.480233,11.9074412 C193.352607,11.9074412 193.242709,11.9272016 193.150536,11.966723 C193.058362,12.0062445 192.98037,12.0439689 192.916557,12.0798974 L192.916557,15.863156 C192.845654,15.8847132 192.733984,15.90627 192.581542,15.9278271 C192.429101,15.9493843 192.271344,15.9601627 192.108267,15.9601627 C191.952281,15.9601627 191.81225,15.9493843 191.688169,15.9278271 C191.564089,15.90627 191.459509,15.8631564 191.374425,15.798485 C191.289342,15.7338135 191.223758,15.6457899 191.177671,15.5344114 C191.131584,15.4230328 191.108541,15.2775243 191.108541,15.0978815 L191.108541,11.8427701 C191.108541,11.6487559 191.149309,11.4942654 191.230848,11.379294 C191.312386,11.2643226 191.424057,11.1565385 191.565862,11.0559386 C191.806932,10.8834815 192.106493,10.7433622 192.464553,10.6355765 C192.822613,10.5277908 193.19662,10.4738988 193.586587,10.4738988 Z"/>
</svg>
